JosefinSlab-ThinItalic_ik.ufo
<glyph name="ampersand" format="1">
  <advance width="660"/>
  <unicode hex="0026"/>
  <outline>
    <contour>
      <point x="606" y="14" type="line"/>
      <point x="604" y="0" type="line"/>
      <point x="526" y="0" type="line"/>
      <point x="465" y="92" type="line"/>
      <point x="448" y="71"/>
      <point x="401" y="35"/>
      <point x="343" y="9"/>
      <point x="278" y="-6"/>
      <point x="245" y="-6" type="qcurve"/>
      <point x="199" y="-6"/>
      <point x="124" y="21"/>
      <point x="71" y="69"/>
      <point x="42" y="132"/>
      <point x="42" y="168" type="qcurve"/>
      <point x="42" y="212"/>
      <point x="83" y="288"/>
      <point x="149" y="345"/>
      <point x="233" y="380"/>
      <point x="277" y="383" type="qcurve"/>
      <point x="203" y="497" type="line"/>
      <point x="195" y="514"/>
      <point x="182" y="554"/>
      <point x="182" y="580" type="qcurve"/>
      <point x="182" y="618"/>
      <point x="211" y="680"/>
      <point x="260" y="724"/>
      <point x="323" y="748"/>
      <point x="358" y="748" type="qcurve"/>
      <point x="397" y="748"/>
      <point x="462" y="721"/>
      <point x="485" y="706" type="qcurve"/>
      <point x="483" y="703"/>
      <point x="480" y="700"/>
      <point x="478" y="697" type="qcurve"/>
      <point x="450" y="714"/>
      <point x="390" y="736"/>
      <point x="358" y="736" type="qcurve"/>
      <point x="326" y="736"/>
      <point x="268" y="714"/>
      <point x="224" y="673"/>
      <point x="198" y="618"/>
      <point x="198" y="585" type="qcurve"/>
      <point x="198" y="568"/>
      <point x="203" y="538"/>
      <point x="207" y="527" type="qcurve"/>
      <point x="211" y="514"/>
      <point x="216" y="504" type="qcurve"/>
      <point x="466" y="119" type="line"/>
      <point x="598" y="384" type="line"/>
      <point x="615" y="384" type="line"/>
      <point x="475" y="106" type="line"/>
      <point x="535" y="14" type="line"/>
    </contour>
    <contour>
      <point x="59" y="167" type="qcurve"/>
      <point x="59" y="131"/>
      <point x="88" y="73"/>
      <point x="139" y="31"/>
      <point x="207" y="8"/>
      <point x="246" y="8" type="qcurve"/>
      <point x="279" y="8"/>
      <point x="342" y="23"/>
      <point x="397" y="50"/>
      <point x="442" y="85"/>
      <point x="457" y="105" type="qcurve"/>
      <point x="286" y="369" type="line"/>
      <point x="249" y="368"/>
      <point x="169" y="339"/>
      <point x="102" y="286"/>
      <point x="59" y="213"/>
    </contour>
  </outline>
</glyph>
<glyph name="hyphen" format="1">
  <advance width="327"/>
  <unicode hex="002D"/>
  <outline>
    <contour>
      <point x="61" y="184" type="line"/>
      <point x="63" y="198" type="line"/>
      <point x="247" y="198" type="line"/>
      <point x="245" y="184" type="line"/>
    </contour>
  </outline>
</glyph>
<glyph name="colon" format="1">
  <advance width="183"/>
  <unicode hex="003A"/>
  <outline>
    <contour>
      <point x="72" y="268" type="qcurve"/>
      <point x="72" y="277"/>
      <point x="86" y="290"/>
      <point x="95" y="290" type="qcurve"/>
      <point x="103" y="290"/>
      <point x="112" y="280"/>
      <point x="112" y="272" type="qcurve"/>
      <point x="112" y="263"/>
      <point x="99" y="250"/>
      <point x="90" y="250" type="qcurve"/>
      <point x="82" y="250"/>
      <point x="72" y="260"/>
    </contour>
    <contour>
      <point x="41" y="18" type="qcurve"/>
      <point x="41" y="27"/>
      <point x="55" y="40"/>
      <point x="64" y="40" type="qcurve"/>
      <point x="72" y="40"/>
      <point x="82" y="30"/>
      <point x="82" y="22" type="qcurve"/>
      <point x="82" y="13"/>
      <point x="68" y="0"/>
      <point x="59" y="0" type="qcurve"/>
      <point x="51" y="0"/>
      <point x="41" y="10"/>
    </contour>
  </outline>
</glyph>
<glyph name="X" format="1">
  <advance width="608"/>
  <unicode hex="0058"/>
  <outline>
    <contour>
      <point x="243" y="700" type="line"/>
      <point x="241" y="686" type="line"/>
      <point x="148" y="686" type="line"/>
      <point x="188" y="609"/>
      <point x="269" y="457"/>
      <point x="310" y="381" type="qcurve"/>
      <point x="316" y="368" type="line"/>
      <point x="319" y="371"/>
      <point x="323" y="378"/>
      <point x="326" y="381" type="qcurve"/>
      <point x="569" y="700" type="line"/>
      <point x="628" y="700" type="line"/>
      <point x="626" y="686" type="line"/>
      <point x="570" y="686" type="line"/>
      <point x="507" y="603"/>
      <point x="384" y="442"/>
      <point x="321" y="359" type="qcurve"/>
      <point x="366" y="272"/>
      <point x="459" y="100"/>
      <point x="504" y="14" type="qcurve"/>
      <point x="583" y="14" type="line"/>
      <point x="581" y="0" type="line"/>
      <point x="407" y="0" type="line"/>
      <point x="409" y="14" type="line"/>
      <point x="486" y="14" type="line"/>
      <point x="345" y="279" type="line"/>
      <point x="336" y="296"/>
      <point x="319" y="335"/>
      <point x="308" y="351" type="qcurve"/>
      <point x="299" y="338" type="line"/>
      <point x="41" y="0" type="line"/>
      <point x="-20" y="0" type="line"/>
      <point x="-18" y="14" type="line"/>
      <point x="40" y="14" type="line"/>
      <point x="106" y="101"/>
      <point x="236" y="272"/>
      <point x="303" y="360" type="qcurve"/>
      <point x="260" y="441"/>
      <point x="174" y="604"/>
      <point x="132" y="686" type="qcurve"/>
      <point x="67" y="686" type="line"/>
      <point x="69" y="700" type="line"/>
    </contour>
  </outline>
</glyph>
<glyph name="bracketleft" format="1">
  <advance width="295"/>
  <unicode hex="005B"/>
  <outline>
    <contour>
      <point x="52" y="-149" type="line"/>
      <point x="162" y="746" type="line"/>
      <point x="325" y="746" type="line"/>
      <point x="323" y="732" type="line"/>
      <point x="176" y="732" type="line"/>
      <point x="70" y="-135" type="line"/>
      <point x="217" y="-135" type="line"/>
      <point x="215" y="-149" type="line"/>
    </contour>
  </outline>
</glyph>
<glyph name="m" format="1">
  <advance width="763"/>
  <unicode hex="006D"/>
  <outline>
    <contour>
      <point x="645" y="42" type="line"/>
      <point x="642" y="14" type="line"/>
      <point x="722" y="14" type="line"/>
      <point x="720" y="0" type="line"/>
      <point x="547" y="0" type="line"/>
      <point x="549" y="14" type="line"/>
      <point x="627" y="14" type="line"/>
      <point x="631" y="42" type="line"/>
      <point x="660" y="277" type="line"/>
      <point x="663" y="313"/>
      <point x="620" y="366"/>
      <point x="576" y="368" type="qcurve"/>
      <point x="543" y="368"/>
      <point x="481" y="347"/>
      <point x="430" y="309"/>
      <point x="395" y="257"/>
      <point x="390" y="226" type="qcurve"/>
      <point x="367" y="42" type="line"/>
      <point x="364" y="14" type="line"/>
      <point x="444" y="14" type="line"/>
      <point x="442" y="0" type="line"/>
      <point x="269" y="0" type="line"/>
      <point x="271" y="14" type="line"/>
      <point x="349" y="14" type="line"/>
      <point x="353" y="42" type="line"/>
      <point x="382" y="277" type="line"/>
      <point x="385" y="313"/>
      <point x="342" y="366"/>
      <point x="298" y="368" type="qcurve"/>
      <point x="264" y="368"/>
      <point x="200" y="346"/>
      <point x="149" y="307"/>
      <point x="115" y="252"/>
      <point x="111" y="220" type="qcurve"/>
      <point x="88" y="37" type="line"/>
      <point x="89" y="37" type="line"/>
      <point x="86" y="14" type="line"/>
      <point x="167" y="14" type="line"/>
      <point x="165" y="0" type="line"/>
      <point x="-10" y="0" type="line"/>
      <point x="-8" y="14" type="line"/>
      <point x="71" y="14" type="line"/>
      <point x="114" y="361" type="line"/>
      <point x="34" y="361" type="line"/>
      <point x="36" y="375" type="line"/>
      <point x="126" y="375" type="line"/>
      <point x="115" y="277" type="line"/>
      <point x="141" y="324"/>
      <point x="236" y="382"/>
      <point x="293" y="382" type="qcurve"/>
      <point x="342" y="382"/>
      <point x="396" y="327"/>
      <point x="396" y="282" type="qcurve"/>
      <point x="422" y="327"/>
      <point x="516" y="382"/>
      <point x="571" y="382" type="qcurve"/>
      <point x="624" y="382"/>
      <point x="678" y="320"/>
      <point x="673" y="270" type="qcurve"/>
    </contour>
  </outline>
</glyph>
<glyph name="w" format="1">
  <advance width="690"/>
  <unicode hex="0077"/>
  <outline>
    <contour>
      <point x="578" y="375" type="line"/>
      <point x="697" y="375" type="line"/>
      <point x="695" y="361" type="line"/>
      <point x="644" y="361" type="line"/>
      <point x="588" y="264"/>
      <point x="480" y="74"/>
      <point x="426" y="-23" type="qcurve"/>
      <point x="338" y="251" type="line"/>
      <point x="194" y="-23" type="line"/>
      <point x="162" y="74"/>
      <point x="100" y="264"/>
      <point x="69" y="361" type="qcurve"/>
      <point x="14" y="361" type="line"/>
      <point x="16" y="375" type="line"/>
      <point x="154" y="375" type="line"/>
      <point x="152" y="361" type="line"/>
      <point x="84" y="361" type="line"/>
      <point x="113" y="272"/>
      <point x="169" y="96"/>
      <point x="198" y="8" type="qcurve"/>
      <point x="232" y="73"/>
      <point x="299" y="201"/>
      <point x="332" y="266" type="qcurve"/>
      <point x="324" y="293"/>
      <point x="305" y="348"/>
      <point x="297" y="375" type="qcurve"/>
      <point x="312" y="375" type="line"/>
      <point x="322" y="344"/>
      <point x="342" y="274"/>
      <point x="361" y="203"/>
      <point x="381" y="138"/>
      <point x="401" y="87"/>
      <point x="420" y="57"/>
      <point x="429" y="57" type="qcurve"/>
      <point x="454" y="57"/>
      <point x="505" y="118"/>
      <point x="555" y="209"/>
      <point x="605" y="315"/>
      <point x="630" y="361" type="qcurve"/>
      <point x="576" y="361" type="line"/>
    </contour>
  </outline>
</glyph>
<glyph name="yen" format="1">
  <advance width="727"/>
  <unicode hex="00A5"/>
  <outline>
    <contour>
      <point x="365" y="262" type="line"/>
      <point x="346" y="114" type="line"/>
      <point x="505" y="114" type="line"/>
      <point x="503" y="100" type="line"/>
      <point x="345" y="100" type="line"/>
      <point x="334" y="14" type="line"/>
      <point x="414" y="14" type="line"/>
      <point x="413" y="0" type="line"/>
      <point x="239" y="0" type="line"/>
      <point x="240" y="14" type="line"/>
      <point x="320" y="14" type="line"/>
      <point x="331" y="100" type="line"/>
      <point x="170" y="100" type="line"/>
      <point x="172" y="114" type="line"/>
      <point x="332" y="114" type="line"/>
      <point x="351" y="262" type="line"/>
      <point x="350" y="262"/>
      <point x="350" y="263" type="qcurve"/>
      <point x="190" y="263" type="line"/>
      <point x="192" y="277" type="line"/>
      <point x="344" y="277" type="line"/>
      <point x="294" y="380"/>
      <point x="198" y="583"/>
      <point x="148" y="686" type="qcurve"/>
      <point x="83" y="686" type="line"/>
      <point x="85" y="700" type="line"/>
      <point x="259" y="700" type="line"/>
      <point x="257" y="686" type="line"/>
      <point x="165" y="686" type="line"/>
      <point x="211" y="589"/>
      <point x="305" y="396"/>
      <point x="350" y="298" type="qcurve"/>
      <point x="360" y="272" type="line"/>
      <point x="374" y="298" type="line"/>
      <point x="653" y="686" type="line"/>
      <point x="562" y="686" type="line"/>
      <point x="564" y="700" type="line"/>
      <point x="744" y="700" type="line"/>
      <point x="742" y="686" type="line"/>
      <point x="671" y="686" type="line"/>
      <point x="375" y="277" type="line"/>
      <point x="525" y="277" type="line"/>
      <point x="523" y="263" type="line"/>
      <point x="365" y="263" type="line"/>
    </contour>
  </outline>
</glyph>
<glyph name="ordfeminine" format="1">
  <advance width="460"/>
  <unicode hex="00AA"/>
  <outline>
    <contour>
      <point x="346" y="316" type="line"/>
      <point x="404" y="316" type="line"/>
      <point x="402" y="306" type="line"/>
      <point x="334" y="306" type="line"/>
      <point x="340" y="345" type="line"/>
      <point x="342" y="356"/>
      <point x="344" y="379"/>
      <point x="345" y="390" type="qcurve"/>
      <point x="325" y="351"/>
      <point x="248" y="302"/>
      <point x="203" y="302" type="qcurve"/>
      <point x="176" y="302"/>
      <point x="131" y="321"/>
      <point x="98" y="355"/>
      <point x="80" y="400"/>
      <point x="80" y="427" type="qcurve"/>
      <point x="80" y="459"/>
      <point x="106" y="515"/>
      <point x="149" y="557"/>
      <point x="206" y="582"/>
      <point x="238" y="582" type="qcurve"/>
      <point x="283" y="582"/>
      <point x="347" y="532"/>
      <point x="358" y="494" type="qcurve"/>
      <point x="360" y="514"/>
      <point x="366" y="556"/>
      <point x="371" y="576" type="qcurve"/>
      <point x="378" y="576" type="line"/>
    </contour>
    <contour>
      <point x="89" y="429" type="qcurve"/>
      <point x="89" y="379"/>
      <point x="154" y="312"/>
      <point x="204" y="312" type="qcurve"/>
      <point x="233" y="312"/>
      <point x="286" y="335"/>
      <point x="327" y="374"/>
      <point x="351" y="426"/>
      <point x="351" y="455" type="qcurve"/>
      <point x="351" y="479"/>
      <point x="334" y="522"/>
      <point x="303" y="554"/>
      <point x="261" y="572"/>
      <point x="236" y="572" type="qcurve"/>
      <point x="207" y="572"/>
      <point x="153" y="549"/>
      <point x="113" y="510"/>
      <point x="89" y="458"/>
    </contour>
  </outline>
</glyph>
<glyph name="logicalnot" format="1">
  <advance width="553"/>
  <unicode hex="00AC"/>
  <outline>
    <contour>
      <point x="443" y="148" type="line"/>
      <point x="453" y="227" type="line"/>
      <point x="107" y="227" type="line"/>
      <point x="109" y="241" type="line"/>
      <point x="469" y="241" type="line"/>
      <point x="457" y="148" type="line"/>
    </contour>
  </outline>
</glyph>
<glyph name="macron" format="1">
  <advance width="399"/>
  <unicode hex="00AF"/>
  <outline>
    <contour>
      <point x="145" y="492" type="line"/>
      <point x="147" y="506" type="line"/>
      <point x="377" y="506" type="line"/>
      <point x="375" y="492" type="line"/>
    </contour>
  </outline>
</glyph>
<glyph name="onehalf" format="1">
  <advance width="835"/>
  <unicode hex="00BD"/>
  <outline>
    <contour>
      <point x="499" y="10" type="qcurve"/>
      <point x="743" y="10" type="line"/>
      <point x="755" y="105" type="line"/>
      <point x="765" y="105" type="line"/>
      <point x="753" y="10" type="line"/>
      <point x="754" y="10" type="line"/>
      <point x="752" y="0" type="line"/>
      <point x="472" y="0" type="line"/>
      <point x="526" y="46"/>
      <point x="626" y="135"/>
      <point x="704" y="220"/>
      <point x="751" y="302"/>
      <point x="751" y="341" type="qcurve"/>
      <point x="751" y="374"/>
      <point x="732" y="418"/>
      <point x="703" y="444"/>
      <point x="668" y="455"/>
      <point x="652" y="455" type="qcurve"/>
      <point x="613" y="455"/>
      <point x="562" y="425"/>
      <point x="532" y="382"/>
      <point x="520" y="334"/>
      <point x="520" y="316" type="qcurve"/>
      <point x="520" y="296"/>
      <point x="529" y="263"/>
      <point x="540" y="251" type="qcurve"/>
      <point x="533" y="245" type="line"/>
      <point x="522" y="259"/>
      <point x="510" y="293"/>
      <point x="510" y="316" type="qcurve"/>
      <point x="510" y="346"/>
      <point x="530" y="401"/>
      <point x="567" y="441"/>
      <point x="620" y="465"/>
      <point x="653" y="465" type="qcurve"/>
      <point x="704" y="465"/>
      <point x="762" y="398"/>
      <point x="762" y="346" type="qcurve"/>
      <point x="762" y="301"/>
      <point x="713" y="215"/>
      <point x="636" y="132"/>
      <point x="543" y="50"/>
    </contour>
    <contour>
      <point x="175" y="-19" type="line"/>
      <point x="546" y="735" type="line"/>
      <point x="560" y="735" type="line"/>
      <point x="189" y="-19" type="line"/>
    </contour>
    <contour>
      <point x="88" y="685" type="line"/>
      <point x="89" y="695" type="line"/>
      <point x="179" y="695" type="line"/>
      <point x="122" y="234" type="line"/>
      <point x="112" y="234" type="line"/>
      <point x="168" y="685" type="line"/>
    </contour>
  </outline>
</glyph>
<glyph name="Ccedilla" format="1">
  <advance width="653"/>
  <unicode hex="00C7"/>
  <outline>
    <contour>
      <point x="626" y="582" type="line"/>
      <point x="634" y="650" type="line"/>
      <point x="599" y="671"/>
      <point x="516" y="694"/>
      <point x="471" y="694" type="qcurve"/>
      <point x="394" y="694"/>
      <point x="254" y="633"/>
      <point x="146" y="528"/>
      <point x="82" y="388"/>
      <point x="82" y="308" type="qcurve"/>
      <point x="82" y="246"/>
      <point x="122" y="137"/>
      <point x="199" y="54"/>
      <point x="309" y="6"/>
      <point x="379" y="6" type="qcurve"/>
      <point x="431" y="6"/>
      <point x="523" y="31"/>
      <point x="565" y="54" type="qcurve"/>
      <point x="573" y="42" type="line"/>
      <point x="531" y="19"/>
      <point x="438" y="-7"/>
      <point x="384" y="-8" type="qcurve"/>
      <point x="382" y="-20"/>
      <point x="389" y="-37"/>
      <point x="399" y="-49"/>
      <point x="413" y="-57"/>
      <point x="419" y="-61" type="qcurve"/>
      <point x="438" y="-75"/>
      <point x="453" y="-109"/>
      <point x="453" y="-122" type="qcurve"/>
      <point x="453" y="-148"/>
      <point x="437" y="-185"/>
      <point x="410" y="-211"/>
      <point x="375" y="-223"/>
      <point x="357" y="-223" type="qcurve"/>
      <point x="331" y="-223"/>
      <point x="289" y="-194"/>
      <point x="283" y="-165" type="qcurve"/>
      <point x="298" y="-161" type="line"/>
      <point x="302" y="-182"/>
      <point x="334" y="-209"/>
      <point x="359" y="-209" type="qcurve"/>
      <point x="392" y="-209"/>
      <point x="438" y="-163"/>
      <point x="438" y="-128" type="qcurve"/>
      <point x="438" y="-104"/>
      <point x="415" y="-77"/>
      <point x="388" y="-56"/>
      <point x="367" y="-35"/>
      <point x="369" y="-16" type="qcurve"/>
      <point x="370" y="-7" type="line"/>
      <point x="299" y="-5"/>
      <point x="187" y="46"/>
      <point x="109" y="131"/>
      <point x="68" y="244"/>
      <point x="68" y="308" type="qcurve"/>
      <point x="68" y="391"/>
      <point x="135" y="537"/>
      <point x="246" y="645"/>
      <point x="392" y="708"/>
      <point x="472" y="708" type="qcurve"/>
      <point x="523" y="708"/>
      <point x="611" y="682"/>
      <point x="649" y="658" type="qcurve"/>
      <point x="640" y="582" type="line"/>
    </contour>
  </outline>
</glyph>
<glyph name="Otilde" format="1">
  <advance width="837"/>
  <unicode hex="00D5"/>
  <outline>
    <contour>
      <point x="70" y="349" type="qcurve"/>
      <point x="79" y="423"/>
      <point x="151" y="554"/>
      <point x="260" y="651"/>
      <point x="397" y="708"/>
      <point x="471" y="708" type="qcurve"/>
      <point x="540" y="708"/>
      <point x="656" y="658"/>
      <point x="741" y="570"/>
      <point x="789" y="452"/>
      <point x="789" y="385" type="qcurve"/>
      <point x="789" y="305"/>
      <point x="722" y="162"/>
      <point x="610" y="55"/>
      <point x="463" y="-8"/>
      <point x="383" y="-8" type="qcurve"/>
      <point x="309" y="-8"/>
      <point x="186" y="48"/>
      <point x="101" y="145"/>
      <point x="61" y="275"/>
    </contour>
    <contour>
      <point x="84" y="348" type="qcurve"/>
      <point x="75" y="277"/>
      <point x="114" y="153"/>
      <point x="195" y="60"/>
      <point x="312" y="6"/>
      <point x="382" y="6" type="qcurve"/>
      <point x="458" y="6"/>
      <point x="600" y="66"/>
      <point x="709" y="169"/>
      <point x="774" y="306"/>
      <point x="774" y="383" type="qcurve"/>
      <point x="774" y="447"/>
      <point x="728" y="561"/>
      <point x="646" y="645"/>
      <point x="535" y="694"/>
      <point x="469" y="694" type="qcurve"/>
      <point x="398" y="694"/>
      <point x="267" y="639"/>
      <point x="162" y="545"/>
      <point x="93" y="419"/>
    </contour>
    <contour>
      <point x="478" y="783" type="qcurve"/>
      <point x="464" y="801"/>
      <point x="442" y="813"/>
      <point x="428" y="813" type="qcurve"/>
      <point x="420" y="813"/>
      <point x="398" y="808"/>
      <point x="377" y="796"/>
      <point x="359" y="775"/>
      <point x="355" y="758" type="qcurve"/>
      <point x="342" y="760" type="line"/>
      <point x="349" y="797"/>
      <point x="404" y="827"/>
      <point x="432" y="827" type="qcurve"/>
      <point x="452" y="827"/>
      <point x="482" y="806"/>
      <point x="496" y="789" type="qcurve"/>
      <point x="510" y="771"/>
      <point x="533" y="759"/>
      <point x="547" y="759" type="qcurve"/>
      <point x="555" y="759"/>
      <point x="577" y="764"/>
      <point x="598" y="776"/>
      <point x="616" y="797"/>
      <point x="620" y="814" type="qcurve"/>
      <point x="632" y="812" type="line"/>
      <point x="625" y="775"/>
      <point x="570" y="745"/>
      <point x="542" y="745" type="qcurve"/>
      <point x="522" y="745"/>
      <point x="492" y="766"/>
    </contour>
  </outline>
</glyph>
<glyph name="Yacute" format="1">
  <advance width="662"/>
  <unicode hex="00DD"/>
  <outline>
    <contour>
      <point x="387" y="14" type="line"/>
      <point x="386" y="0" type="line"/>
      <point x="212" y="0" type="line"/>
      <point x="213" y="14" type="line"/>
      <point x="293" y="14" type="line"/>
      <point x="324" y="262" type="line"/>
      <point x="121" y="686" type="line"/>
      <point x="56" y="686" type="line"/>
      <point x="58" y="700" type="line"/>
      <point x="232" y="700" type="line"/>
      <point x="230" y="686" type="line"/>
      <point x="138" y="686" type="line"/>
      <point x="184" y="589"/>
      <point x="278" y="396"/>
      <point x="323" y="298" type="qcurve"/>
      <point x="333" y="272" type="line"/>
      <point x="347" y="298" type="line"/>
      <point x="626" y="686" type="line"/>
      <point x="535" y="686" type="line"/>
      <point x="537" y="700" type="line"/>
      <point x="717" y="700" type="line"/>
      <point x="715" y="686" type="line"/>
      <point x="644" y="686" type="line"/>
      <point x="338" y="262" type="line"/>
      <point x="307" y="14" type="line"/>
    </contour>
    <contour>
      <point x="385" y="750" type="line"/>
      <point x="491" y="883" type="line"/>
      <point x="507" y="883" type="line"/>
      <point x="401" y="750" type="line"/>
    </contour>
  </outline>
</glyph>
<glyph name="germandbls" format="1">
  <advance width="522"/>
  <unicode hex="00DF"/>
  <outline>
    <contour>
      <point x="136" y="22" type="qcurve"/>
      <point x="144" y="33" type="line"/>
      <point x="183" y="5"/>
      <point x="238" y="5" type="qcurve"/>
      <point x="281" y="5"/>
      <point x="360" y="39"/>
      <point x="420" y="96"/>
      <point x="456" y="172"/>
      <point x="456" y="213" type="qcurve"/>
      <point x="456" y="247"/>
      <point x="431" y="309"/>
      <point x="386" y="354"/>
      <point x="324" y="381"/>
      <point x="287" y="381" type="qcurve"/>
      <point x="288" y="383"/>
      <point x="288" y="388" type="qcurve"/>
      <point x="289" y="396" type="line"/>
      <point x="317" y="396"/>
      <point x="369" y="415"/>
      <point x="408" y="449"/>
      <point x="431" y="499"/>
      <point x="431" y="529" type="qcurve"/>
      <point x="431" y="551"/>
      <point x="417" y="593"/>
      <point x="387" y="625"/>
      <point x="341" y="644"/>
      <point x="310" y="644" type="qcurve"/>
      <point x="230" y="644"/>
      <point x="134" y="527"/>
      <point x="122" y="430" type="qcurve"/>
      <point x="69" y="0" type="line"/>
      <point x="56" y="0" type="line"/>
      <point x="101" y="370" type="line"/>
      <point x="36" y="370" type="line"/>
      <point x="38" y="384" type="line"/>
      <point x="103" y="384" type="line"/>
      <point x="108" y="426" type="line"/>
      <point x="122" y="538"/>
      <point x="225" y="655"/>
      <point x="301" y="658" type="qcurve"/>
      <point x="343" y="657"/>
      <point x="399" y="636"/>
      <point x="432" y="603"/>
      <point x="446" y="560"/>
      <point x="446" y="538" type="qcurve"/>
      <point x="446" y="480"/>
      <point x="386" y="407"/>
      <point x="336" y="389" type="qcurve"/>
      <point x="366" y="382"/>
      <point x="415" y="350"/>
      <point x="450" y="304"/>
      <point x="470" y="247"/>
      <point x="470" y="215" type="qcurve"/>
      <point x="470" y="170"/>
      <point x="432" y="89"/>
      <point x="367" y="28"/>
      <point x="284" y="-8"/>
      <point x="239" y="-8" type="qcurve"/>
      <point x="210" y="-8"/>
      <point x="158" y="8"/>
    </contour>
  </outline>
</glyph>
<glyph name="aring" format="1">
  <advance width="528"/>
  <unicode hex="00E5"/>
  <outline>
    <contour>
      <point x="402" y="14" type="line"/>
      <point x="482" y="14" type="line"/>
      <point x="480" y="0" type="line"/>
      <point x="386" y="0" type="line"/>
      <point x="393" y="54" type="line"/>
      <point x="395" y="70"/>
      <point x="399" y="101"/>
      <point x="401" y="117" type="qcurve"/>
      <point x="387" y="90"/>
      <point x="346" y="45"/>
      <point x="294" y="12"/>
      <point x="235" y="-6"/>
      <point x="204" y="-6" type="qcurve"/>
      <point x="167" y="-6"/>
      <point x="104" y="21"/>
      <point x="59" y="68"/>
      <point x="33" y="131"/>
      <point x="33" y="168" type="qcurve"/>
      <point x="33" y="212"/>
      <point x="69" y="290"/>
      <point x="129" y="349"/>
      <point x="208" y="383"/>
      <point x="252" y="383" type="qcurve"/>
      <point x="314" y="383"/>
      <point x="403" y="314"/>
      <point x="418" y="260" type="qcurve"/>
      <point x="422" y="289"/>
      <point x="431" y="346"/>
      <point x="436" y="375" type="qcurve"/>
      <point x="446" y="375" type="line"/>
      <point x="401" y="13" type="line"/>
    </contour>
    <contour>
      <point x="46" y="170" type="qcurve"/>
      <point x="46" y="136"/>
      <point x="70" y="77"/>
      <point x="112" y="33"/>
      <point x="170" y="8"/>
      <point x="205" y="8" type="qcurve"/>
      <point x="245" y="8"/>
      <point x="319" y="39"/>
      <point x="376" y="93"/>
      <point x="409" y="165"/>
      <point x="409" y="206" type="qcurve"/>
      <point x="409" y="240"/>
      <point x="385" y="300"/>
      <point x="342" y="344"/>
      <point x="283" y="369"/>
      <point x="249" y="369" type="qcurve"/>
      <point x="208" y="369"/>
      <point x="135" y="337"/>
      <point x="79" y="283"/>
      <point x="46" y="210"/>
    </contour>
    <contour>
      <point x="197" y="495" type="qcurve"/>
      <point x="197" y="524"/>
      <point x="239" y="565"/>
      <point x="268" y="565" type="qcurve"/>
      <point x="293" y="565"/>
      <point x="324" y="533"/>
      <point x="324" y="509" type="qcurve"/>
      <point x="324" y="480"/>
      <point x="282" y="439"/>
      <point x="253" y="439" type="qcurve"/>
      <point x="228" y="439"/>
      <point x="197" y="471"/>
    </contour>
    <contour>
      <point x="211" y="498" type="qcurve"/>
      <point x="211" y="480"/>
      <point x="236" y="453"/>
      <point x="255" y="453" type="qcurve"/>
      <point x="275" y="453"/>
      <point x="310" y="485"/>
      <point x="310" y="506" type="qcurve"/>
      <point x="310" y="524"/>
      <point x="285" y="551"/>
      <point x="267" y="551" type="qcurve"/>
      <point x="246" y="551"/>
      <point x="211" y="519"/>
    </contour>
  </outline>
</glyph>
<glyph name="Idotaccent" format="1">
  <advance width="293"/>
  <unicode hex="0130"/>
  <outline>
    <contour>
      <point x="290" y="700" type="line"/>
      <point x="288" y="686" type="line"/>
      <point x="205" y="686" type="line"/>
      <point x="122" y="14" type="line"/>
      <point x="206" y="14" type="line"/>
      <point x="204" y="0" type="line"/>
      <point x="30" y="0" type="line"/>
      <point x="32" y="14" type="line"/>
      <point x="108" y="14" type="line"/>
      <point x="191" y="686" type="line"/>
      <point x="114" y="686" type="line"/>
      <point x="116" y="700" type="line"/>
    </contour>
    <contour>
      <point x="187" y="757" type="qcurve"/>
      <point x="187" y="766"/>
      <point x="201" y="779"/>
      <point x="210" y="779" type="qcurve"/>
      <point x="218" y="779"/>
      <point x="228" y="769"/>
      <point x="228" y="761" type="qcurve"/>
      <point x="228" y="752"/>
      <point x="214" y="739"/>
      <point x="205" y="739" type="qcurve"/>
      <point x="197" y="739"/>
      <point x="187" y="749"/>
    </contour>
  </outline>
</glyph>
<glyph name="dotlessi" format="1">
  <advance width="214"/>
  <unicode hex="0131"/>
  <outline>
    <contour>
      <point x="90" y="37" type="line"/>
      <point x="87" y="14" type="line"/>
      <point x="168" y="14" type="line"/>
      <point x="166" y="0" type="line"/>
      <point x="-9" y="0" type="line"/>
      <point x="-7" y="14" type="line"/>
      <point x="72" y="14" type="line"/>
      <point x="115" y="361" type="line"/>
      <point x="35" y="361" type="line"/>
      <point x="37" y="375" type="line"/>
      <point x="131" y="375" type="line"/>
      <point x="89" y="37" type="line"/>
    </contour>
  </outline>
</glyph>
<glyph name="Lacute" format="1">
  <advance width="587"/>
  <unicode hex="0139"/>
  <outline>
    <contour>
      <point x="291" y="700" type="line"/>
      <point x="289" y="686" type="line"/>
      <point x="205" y="686" type="line"/>
      <point x="123" y="14" type="line"/>
      <point x="523" y="14" type="line"/>
      <point x="533" y="89" type="line"/>
      <point x="547" y="89" type="line"/>
      <point x="536" y="0" type="line"/>
      <point x="31" y="0" type="line"/>
      <point x="33" y="14" type="line"/>
      <point x="108" y="14" type="line"/>
      <point x="191" y="686" type="line"/>
      <point x="115" y="686" type="line"/>
      <point x="117" y="700" type="line"/>
    </contour>
    <contour>
      <point x="329" y="750" type="line"/>
      <point x="435" y="883" type="line"/>
      <point x="451" y="883" type="line"/>
      <point x="345" y="750" type="line"/>
    </contour>
  </outline>
</glyph>
<glyph name="lcaron" format="1">
  <advance width="207"/>
  <unicode hex="013E"/>
  <outline>
    <contour>
      <point x="82" y="37" type="line"/>
      <point x="79" y="14" type="line"/>
      <point x="160" y="14" type="line"/>
      <point x="158" y="0" type="line"/>
      <point x="-17" y="0" type="line"/>
      <point x="-15" y="14" type="line"/>
      <point x="64" y="14" type="line"/>
      <point x="153" y="736" type="line"/>
      <point x="73" y="736" type="line"/>
      <point x="75" y="750" type="line"/>
      <point x="169" y="750" type="line"/>
      <point x="81" y="37" type="line"/>
    </contour>
    <contour>
      <point x="213" y="572" type="qcurve"/>
      <point x="212" y="577"/>
      <point x="211" y="585"/>
      <point x="209" y="590" type="qcurve"/>
      <point x="233" y="610"/>
      <point x="259" y="669"/>
      <point x="256" y="704" type="qcurve"/>
      <point x="276" y="711" type="line"/>
      <point x="280" y="671"/>
      <point x="246" y="598"/>
    </contour>
  </outline>
</glyph>
<glyph name="tcaron" format="1">
  <advance width="240"/>
  <unicode hex="0165"/>
  <outline>
    <contour>
      <point x="131" y="539" type="line"/>
      <point x="145" y="539" type="line"/>
      <point x="124" y="367" type="line"/>
      <point x="251" y="367" type="line"/>
      <point x="249" y="353" type="line"/>
      <point x="122" y="353" type="line"/>
      <point x="80" y="14" type="line"/>
      <point x="171" y="14" type="line"/>
      <point x="170" y="0" type="line"/>
      <point x="65" y="0" type="line"/>
      <point x="69" y="37" type="line"/>
      <point x="108" y="353" type="line"/>
      <point x="19" y="353" type="line"/>
      <point x="21" y="367" type="line"/>
      <point x="110" y="367" type="line"/>
    </contour>
    <contour>
      <point x="234" y="572" type="qcurve"/>
      <point x="233" y="577"/>
      <point x="232" y="585"/>
      <point x="230" y="590" type="qcurve"/>
      <point x="254" y="610"/>
      <point x="280" y="669"/>
      <point x="277" y="704" type="qcurve"/>
      <point x="297" y="711" type="line"/>
      <point x="301" y="671"/>
      <point x="267" y="598"/>
    </contour>
  </outline>
</glyph>
<glyph name="Utilde" format="1">
  <advance width="697"/>
  <unicode hex="0168"/>
  <outline>
    <contour>
      <point x="275" y="700" type="line"/>
      <point x="273" y="686" type="line"/>
      <point x="190" y="686" type="line"/>
      <point x="134" y="229" type="line"/>
      <point x="127" y="175"/>
      <point x="148" y="92"/>
      <point x="198" y="35"/>
      <point x="272" y="6"/>
      <point x="318" y="6" type="qcurve"/>
      <point x="363" y="6"/>
      <point x="444" y="35"/>
      <point x="507" y="92"/>
      <point x="549" y="175"/>
      <point x="556" y="229" type="qcurve"/>
      <point x="612" y="686" type="line"/>
      <point x="614" y="700" type="line"/>
      <point x="707" y="700" type="line"/>
      <point x="705" y="686" type="line"/>
      <point x="626" y="686" type="line"/>
      <point x="570" y="226" type="line"/>
      <point x="563" y="169"/>
      <point x="517" y="81"/>
      <point x="450" y="22"/>
      <point x="364" y="-8"/>
      <point x="316" y="-8" type="qcurve"/>
      <point x="268" y="-8"/>
      <point x="189" y="22"/>
      <point x="136" y="81"/>
      <point x="113" y="169"/>
      <point x="120" y="226" type="qcurve"/>
      <point x="176" y="686" type="line"/>
      <point x="99" y="686" type="line"/>
      <point x="101" y="700" type="line"/>
    </contour>
    <contour>
      <point x="410" y="785" type="qcurve"/>
      <point x="396" y="803"/>
      <point x="374" y="815"/>
      <point x="360" y="815" type="qcurve"/>
      <point x="352" y="815"/>
      <point x="330" y="810"/>
      <point x="309" y="798"/>
      <point x="291" y="777"/>
      <point x="287" y="760" type="qcurve"/>
      <point x="274" y="762" type="line"/>
      <point x="281" y="799"/>
      <point x="336" y="829"/>
      <point x="364" y="829" type="qcurve"/>
      <point x="384" y="829"/>
      <point x="414" y="808"/>
      <point x="428" y="791" type="qcurve"/>
      <point x="442" y="773"/>
      <point x="465" y="761"/>
      <point x="479" y="761" type="qcurve"/>
      <point x="487" y="761"/>
      <point x="509" y="766"/>
      <point x="530" y="778"/>
      <point x="548" y="799"/>
      <point x="552" y="816" type="qcurve"/>
      <point x="564" y="814" type="line"/>
      <point x="557" y="777"/>
      <point x="502" y="747"/>
      <point x="474" y="747" type="qcurve"/>
      <point x="454" y="747"/>
      <point x="424" y="768"/>
    </contour>
  </outline>
</glyph>
<glyph name="utilde" format="1">
  <advance width="477"/>
  <unicode hex="0169"/>
  <outline>
    <contour>
      <point x="376" y="338" type="line"/>
      <point x="379" y="361" type="line"/>
      <point x="298" y="361" type="line"/>
      <point x="300" y="375" type="line"/>
      <point x="395" y="375" type="line"/>
      <point x="350" y="14" type="line"/>
      <point x="430" y="14" type="line"/>
      <point x="429" y="0" type="line"/>
      <point x="339" y="0" type="line"/>
      <point x="350" y="98" type="line"/>
      <point x="324" y="50"/>
      <point x="228" y="-7"/>
      <point x="172" y="-7" type="qcurve"/>
      <point x="119" y="-7"/>
      <point x="65" y="55"/>
      <point x="70" y="105" type="qcurve"/>
      <point x="99" y="342" type="line"/>
      <point x="101" y="361" type="line"/>
      <point x="21" y="361" type="line"/>
      <point x="23" y="375" type="line"/>
      <point x="117" y="375" type="line"/>
      <point x="112" y="333" type="line"/>
      <point x="83" y="98" type="line"/>
      <point x="80" y="62"/>
      <point x="123" y="9"/>
      <point x="167" y="7" type="qcurve"/>
      <point x="201" y="7"/>
      <point x="265" y="29"/>
      <point x="316" y="68"/>
      <point x="350" y="123"/>
      <point x="354" y="155" type="qcurve"/>
    </contour>
    <contour>
      <point x="259" y="485" type="qcurve"/>
      <point x="245" y="503"/>
      <point x="223" y="515"/>
      <point x="209" y="515" type="qcurve"/>
      <point x="201" y="515"/>
      <point x="179" y="510"/>
      <point x="158" y="498"/>
      <point x="140" y="477"/>
      <point x="136" y="460" type="qcurve"/>
      <point x="123" y="462" type="line"/>
      <point x="130" y="499"/>
      <point x="185" y="529"/>
      <point x="213" y="529" type="qcurve"/>
      <point x="233" y="529"/>
      <point x="263" y="508"/>
      <point x="277" y="491" type="qcurve"/>
      <point x="291" y="473"/>
      <point x="314" y="461"/>
      <point x="328" y="461" type="qcurve"/>
      <point x="336" y="461"/>
      <point x="358" y="466"/>
      <point x="379" y="478"/>
      <point x="397" y="499"/>
      <point x="401" y="516" type="qcurve"/>
      <point x="413" y="514" type="line"/>
      <point x="406" y="477"/>
      <point x="351" y="447"/>
      <point x="323" y="447" type="qcurve"/>
      <point x="303" y="447"/>
      <point x="273" y="468"/>
    </contour>
  </outline>
</glyph>
<glyph name="Uring" format="1">
  <advance width="697"/>
  <unicode hex="016E"/>
  <outline>
    <contour>
      <point x="275" y="700" type="line"/>
      <point x="273" y="686" type="line"/>
      <point x="190" y="686" type="line"/>
      <point x="134" y="229" type="line"/>
      <point x="127" y="175"/>
      <point x="148" y="92"/>
      <point x="198" y="35"/>
      <point x="272" y="6"/>
      <point x="318" y="6" type="qcurve"/>
      <point x="363" y="6"/>
      <point x="444" y="35"/>
      <point x="507" y="92"/>
      <point x="549" y="175"/>
      <point x="556" y="229" type="qcurve"/>
      <point x="612" y="686" type="line"/>
      <point x="614" y="700" type="line"/>
      <point x="707" y="700" type="line"/>
      <point x="705" y="686" type="line"/>
      <point x="626" y="686" type="line"/>
      <point x="570" y="226" type="line"/>
      <point x="563" y="169"/>
      <point x="517" y="81"/>
      <point x="450" y="22"/>
      <point x="364" y="-8"/>
      <point x="316" y="-8" type="qcurve"/>
      <point x="268" y="-8"/>
      <point x="189" y="22"/>
      <point x="136" y="81"/>
      <point x="113" y="169"/>
      <point x="120" y="226" type="qcurve"/>
      <point x="176" y="686" type="line"/>
      <point x="99" y="686" type="line"/>
      <point x="101" y="700" type="line"/>
    </contour>
    <contour>
      <point x="347" y="791" type="qcurve"/>
      <point x="347" y="820"/>
      <point x="390" y="861"/>
      <point x="419" y="861" type="qcurve"/>
      <point x="444" y="861"/>
      <point x="475" y="829"/>
      <point x="475" y="805" type="qcurve"/>
      <point x="475" y="776"/>
      <point x="432" y="735"/>
      <point x="403" y="735" type="qcurve"/>
      <point x="378" y="735"/>
      <point x="347" y="767"/>
    </contour>
    <contour>
      <point x="362" y="794" type="qcurve"/>
      <point x="362" y="776"/>
      <point x="387" y="749"/>
      <point x="405" y="749" type="qcurve"/>
      <point x="426" y="749"/>
      <point x="460" y="781"/>
      <point x="460" y="802" type="qcurve"/>
      <point x="460" y="820"/>
      <point x="435" y="847"/>
      <point x="417" y="847" type="qcurve"/>
      <point x="396" y="847"/>
      <point x="362" y="815"/>
    </contour>
  </outline>
</glyph>
<glyph name="quoteleft" format="1">
  <advance width="183"/>
  <unicode hex="2018"/>
  <outline>
    <contour>
      <point x="156" y="590" type="qcurve"/>
      <point x="154" y="585"/>
      <point x="150" y="577"/>
      <point x="148" y="572" type="qcurve"/>
      <point x="122" y="598"/>
      <point x="106" y="671"/>
      <point x="119" y="711" type="qcurve"/>
      <point x="137" y="704" type="line"/>
      <point x="126" y="669"/>
      <point x="138" y="610"/>
    </contour>
  </outline>
</glyph>
<glyph name="perthousand" format="1">
  <advance width="909"/>
  <unicode hex="2030"/>
  <outline>
    <contour>
      <point x="351" y="103" type="qcurve"/>
      <point x="351" y="67"/>
      <point x="399" y="18"/>
      <point x="436" y="18" type="qcurve"/>
      <point x="457" y="18"/>
      <point x="496" y="34"/>
      <point x="526" y="63"/>
      <point x="544" y="100"/>
      <point x="544" y="121" type="qcurve"/>
      <point x="544" y="157"/>
      <point x="496" y="207"/>
      <point x="459" y="207" type="qcurve"/>
      <point x="438" y="207"/>
      <point x="399" y="190"/>
      <point x="369" y="162"/>
      <point x="351" y="124"/>
    </contour>
    <contour>
      <point x="434" y="4" type="qcurve"/>
      <point x="392" y="4"/>
      <point x="337" y="60"/>
      <point x="337" y="102" type="qcurve"/>
      <point x="337" y="126"/>
      <point x="358" y="170"/>
      <point x="392" y="202"/>
      <point x="437" y="221"/>
      <point x="461" y="221" type="qcurve"/>
      <point x="503" y="221"/>
      <point x="559" y="165"/>
      <point x="559" y="123" type="qcurve"/>
      <point x="559" y="99"/>
      <point x="538" y="55"/>
      <point x="503" y="23"/>
      <point x="458" y="4"/>
    </contour>
    <contour>
      <point x="81" y="379" type="qcurve"/>
      <point x="81" y="343"/>
      <point x="129" y="294"/>
      <point x="166" y="294" type="qcurve"/>
      <point x="187" y="294"/>
      <point x="226" y="310"/>
      <point x="256" y="339"/>
      <point x="274" y="376"/>
      <point x="274" y="397" type="qcurve"/>
      <point x="274" y="433"/>
      <point x="226" y="483"/>
      <point x="189" y="483" type="qcurve"/>
      <point x="168" y="483"/>
      <point x="129" y="466"/>
      <point x="99" y="438"/>
      <point x="81" y="400"/>
    </contour>
    <contour>
      <point x="164" y="280" type="qcurve"/>
      <point x="122" y="280"/>
      <point x="67" y="336"/>
      <point x="67" y="378" type="qcurve"/>
      <point x="67" y="402"/>
      <point x="88" y="446"/>
      <point x="122" y="478"/>
      <point x="167" y="497"/>
      <point x="191" y="497" type="qcurve"/>
      <point x="233" y="497"/>
      <point x="289" y="441"/>
      <point x="289" y="399" type="qcurve"/>
      <point x="289" y="375"/>
      <point x="268" y="331"/>
      <point x="233" y="299"/>
      <point x="188" y="280"/>
    </contour>
    <contour>
      <point x="120" y="0" type="line"/>
      <point x="211" y="126"/>
      <point x="389" y="374"/>
      <point x="479" y="500" type="qcurve"/>
      <point x="495" y="500" type="line"/>
      <point x="405" y="374"/>
      <point x="227" y="126"/>
      <point x="136" y="0" type="qcurve"/>
    </contour>
    <contour>
      <point x="641" y="103" type="qcurve"/>
      <point x="641" y="67"/>
      <point x="689" y="18"/>
      <point x="726" y="18" type="qcurve"/>
      <point x="747" y="18"/>
      <point x="786" y="34"/>
      <point x="816" y="63"/>
      <point x="834" y="100"/>
      <point x="834" y="121" type="qcurve"/>
      <point x="834" y="157"/>
      <point x="786" y="207"/>
      <point x="749" y="207" type="qcurve"/>
      <point x="728" y="207"/>
      <point x="689" y="190"/>
      <point x="659" y="162"/>
      <point x="641" y="124"/>
    </contour>
    <contour>
      <point x="724" y="4" type="qcurve"/>
      <point x="682" y="4"/>
      <point x="627" y="60"/>
      <point x="627" y="102" type="qcurve"/>
      <point x="627" y="126"/>
      <point x="648" y="170"/>
      <point x="682" y="202"/>
      <point x="727" y="221"/>
      <point x="751" y="221" type="qcurve"/>
      <point x="793" y="221"/>
      <point x="849" y="165"/>
      <point x="849" y="123" type="qcurve"/>
      <point x="849" y="99"/>
      <point x="828" y="55"/>
      <point x="793" y="23"/>
      <point x="748" y="4"/>
    </contour>
  </outline>
</glyph>
<glyph name="product" format="1">
  <advance width="419"/>
  <unicode hex="220F"/>
  <outline>
    <contour>
      <point x="96" y="-50" type="line"/>
      <point x="82" y="-50" type="line"/>
      <point x="180" y="750" type="line"/>
      <point x="357" y="750" type="line"/>
      <point x="259" y="-50" type="line"/>
      <point x="245" y="-50" type="line"/>
      <point x="342" y="736" type="line"/>
      <point x="193" y="736" type="line"/>
    </contour>
  </outline>
</glyph>
<glyph name="notequal" format="1">
  <advance width="650"/>
  <unicode hex="2260"/>
  <outline>
    <contour>
      <point x="583" y="358" type="line"/>
      <point x="581" y="344" type="line"/>
      <point x="382" y="344" type="line"/>
      <point x="210" y="164" type="line"/>
      <point x="559" y="164" type="line"/>
      <point x="557" y="150" type="line"/>
      <point x="196" y="150" type="line"/>
      <point x="53" y="0" type="line"/>
      <point x="46" y="8" type="line"/>
      <point x="182" y="150" type="line"/>
      <point x="51" y="150" type="line"/>
      <point x="53" y="164" type="line"/>
      <point x="196" y="164" type="line"/>
      <point x="368" y="344" type="line"/>
      <point x="75" y="344" type="line"/>
      <point x="77" y="358" type="line"/>
      <point x="381" y="358" type="line"/>
      <point x="536" y="520" type="line"/>
      <point x="543" y="512" type="line"/>
      <point x="395" y="358" type="line"/>
    </contour>
  </outline>
</glyph>
